<svg width="634" height="673" viewBox="0 0 634 673" fill="none" xmlns="http://www.w3.org/2000/svg">
<circle cx="334" cy="373" r="280" stroke="white" stroke-opacity="0.2" stroke-width="40"/>
<circle cx="334" cy="373" r="215" stroke="white" stroke-opacity="0.5" stroke-width="20"/>
<circle cx="334" cy="373" r="140" stroke="white" stroke-opacity="0.6" stroke-width="20"/>
<rect x="50" y="73" width="160" height="160" rx="8" fill="#5F5BEE"/>
<g clip-path="url(#clip0_531_113)">
<path d="M119 97C120.326 97 121.598 97.5268 122.536 98.4645C123.473 99.4021 124 100.674 124 102C124 103.326 123.473 104.598 122.536 105.536C121.598 106.473 120.326 107 119 107C117.674 107 116.402 106.473 115.464 105.536C114.527 104.598 114 103.326 114 102C114 100.674 114.527 99.4021 115.464 98.4645C116.402 97.5268 117.674 97 119 97ZM142 97C143.326 97 144.598 97.5268 145.536 98.4645C146.473 99.4021 147 100.674 147 102C147 103.326 146.473 104.598 145.536 105.536C144.598 106.473 143.326 107 142 107C140.674 107 139.402 106.473 138.464 105.536C137.527 104.598 137 103.326 137 102C137 100.674 137.527 99.4021 138.464 98.4645C139.402 97.5268 140.674 97 142 97ZM110 115.669C110 111.988 112.987 109 116.669 109H119.337C120.331 109 121.275 109.219 122.125 109.606C122.044 110.056 122.006 110.525 122.006 111C122.006 113.388 123.056 115.531 124.712 117H111.331C110.6 117 110 116.4 110 115.669ZM135.331 117H135.288C136.95 115.531 137.994 113.388 137.994 111C137.994 110.525 137.95 110.062 137.875 109.606C138.725 109.212 139.669 109 140.663 109H143.331C147.012 109 150 111.988 150 115.669C150 116.406 149.4 117 148.669 117H135.331ZM124 111C124 109.409 124.632 107.883 125.757 106.757C126.883 105.632 128.409 105 130 105C131.591 105 133.117 105.632 134.243 106.757C135.368 107.883 136 109.409 136 111C136 112.591 135.368 114.117 134.243 115.243C133.117 116.368 131.591 117 130 117C128.409 117 126.883 116.368 125.757 115.243C124.632 114.117 124 112.591 124 111ZM118 127.331C118 122.731 121.731 119 126.331 119H133.669C138.269 119 142 122.731 142 127.331C142 128.25 141.256 129 140.331 129H119.669C118.75 129 118 128.256 118 127.331Z" fill="white"/>
</g>
<path d="M100.196 152.545V170H96.5057V156.048H96.4034L92.4062 158.554V155.281L96.7273 152.545H100.196ZM111.188 170.384C109.722 170.378 108.461 170.017 107.404 169.301C106.353 168.585 105.543 167.548 104.975 166.19C104.413 164.832 104.134 163.199 104.14 161.29C104.14 159.386 104.421 157.764 104.984 156.423C105.552 155.082 106.362 154.062 107.413 153.364C108.469 152.659 109.728 152.307 111.188 152.307C112.648 152.307 113.904 152.659 114.955 153.364C116.012 154.068 116.825 155.091 117.393 156.432C117.961 157.767 118.242 159.386 118.237 161.29C118.237 163.205 117.952 164.841 117.384 166.199C116.822 167.557 116.015 168.594 114.964 169.31C113.913 170.026 112.654 170.384 111.188 170.384ZM111.188 167.324C112.188 167.324 112.987 166.821 113.583 165.815C114.18 164.81 114.475 163.301 114.469 161.29C114.469 159.966 114.333 158.864 114.06 157.983C113.793 157.102 113.413 156.44 112.918 155.997C112.43 155.554 111.853 155.332 111.188 155.332C110.194 155.332 109.398 155.83 108.802 156.824C108.205 157.818 107.904 159.307 107.898 161.29C107.898 162.631 108.032 163.75 108.299 164.648C108.572 165.54 108.955 166.21 109.45 166.659C109.944 167.102 110.523 167.324 111.188 167.324ZM127.712 170.384C126.246 170.378 124.984 170.017 123.928 169.301C122.876 168.585 122.067 167.548 121.499 166.19C120.936 164.832 120.658 163.199 120.663 161.29C120.663 159.386 120.945 157.764 121.507 156.423C122.075 155.082 122.885 154.062 123.936 153.364C124.993 152.659 126.251 152.307 127.712 152.307C129.172 152.307 130.428 152.659 131.479 153.364C132.536 154.068 133.348 155.091 133.916 156.432C134.484 157.767 134.766 159.386 134.76 161.29C134.76 163.205 134.476 164.841 133.908 166.199C133.345 167.557 132.538 168.594 131.487 169.31C130.436 170.026 129.178 170.384 127.712 170.384ZM127.712 167.324C128.712 167.324 129.51 166.821 130.107 165.815C130.703 164.81 130.999 163.301 130.993 161.29C130.993 159.966 130.857 158.864 130.584 157.983C130.317 157.102 129.936 156.44 129.442 155.997C128.953 155.554 128.376 155.332 127.712 155.332C126.717 155.332 125.922 155.83 125.325 156.824C124.729 157.818 124.428 159.307 124.422 161.29C124.422 162.631 124.555 163.75 124.822 164.648C125.095 165.54 125.479 166.21 125.973 166.659C126.467 167.102 127.047 167.324 127.712 167.324ZM144.235 170.384C142.769 170.378 141.508 170.017 140.451 169.301C139.4 168.585 138.59 167.548 138.022 166.19C137.46 164.832 137.181 163.199 137.187 161.29C137.187 159.386 137.468 157.764 138.031 156.423C138.599 155.082 139.408 154.062 140.46 153.364C141.516 152.659 142.775 152.307 144.235 152.307C145.695 152.307 146.951 152.659 148.002 153.364C149.059 154.068 149.871 155.091 150.44 156.432C151.008 157.767 151.289 159.386 151.283 161.29C151.283 163.205 150.999 164.841 150.431 166.199C149.869 167.557 149.062 168.594 148.011 169.31C146.96 170.026 145.701 170.384 144.235 170.384ZM144.235 167.324C145.235 167.324 146.033 166.821 146.63 165.815C147.227 164.81 147.522 163.301 147.516 161.29C147.516 159.966 147.38 158.864 147.107 157.983C146.84 157.102 146.46 156.44 145.965 155.997C145.477 155.554 144.9 155.332 144.235 155.332C143.241 155.332 142.445 155.83 141.849 156.824C141.252 157.818 140.951 159.307 140.945 161.29C140.945 162.631 141.079 163.75 141.346 164.648C141.619 165.54 142.002 166.21 142.496 166.659C142.991 167.102 143.57 167.324 144.235 167.324ZM159.131 167.341V155.273H162.182V167.341H159.131ZM154.622 162.832V159.781H166.69V162.832H154.622Z" fill="white"/>
<path d="M95.2706 187.364H97.4013L101.106 196.409H101.242L104.947 187.364H107.077V199H105.407V190.58H105.299L101.867 198.983H100.481L97.049 190.574H96.9411V199H95.2706V187.364ZM113.255 199.176C112.395 199.176 111.655 198.992 111.033 198.625C110.416 198.254 109.939 197.733 109.602 197.062C109.268 196.388 109.102 195.598 109.102 194.693C109.102 193.799 109.268 193.011 109.602 192.33C109.939 191.648 110.408 191.116 111.011 190.733C111.617 190.35 112.325 190.159 113.136 190.159C113.628 190.159 114.105 190.241 114.567 190.403C115.03 190.566 115.444 190.822 115.812 191.17C116.179 191.519 116.469 191.972 116.681 192.528C116.893 193.081 116.999 193.754 116.999 194.545V195.148H110.062V193.875H115.335C115.335 193.428 115.244 193.032 115.062 192.688C114.88 192.339 114.624 192.064 114.295 191.864C113.969 191.663 113.586 191.562 113.147 191.562C112.67 191.562 112.253 191.68 111.897 191.915C111.545 192.146 111.272 192.449 111.079 192.824C110.889 193.195 110.795 193.598 110.795 194.034V195.028C110.795 195.612 110.897 196.108 111.102 196.517C111.31 196.926 111.6 197.239 111.971 197.455C112.342 197.667 112.776 197.773 113.272 197.773C113.594 197.773 113.888 197.727 114.153 197.636C114.418 197.542 114.647 197.402 114.84 197.216C115.033 197.03 115.181 196.801 115.283 196.528L116.891 196.818C116.763 197.292 116.531 197.706 116.198 198.062C115.869 198.415 115.454 198.689 114.954 198.886C114.458 199.08 113.891 199.176 113.255 199.176ZM118.884 199V190.273H120.515V191.693H120.623C120.805 191.212 121.102 190.837 121.515 190.568C121.928 190.295 122.422 190.159 122.998 190.159C123.581 190.159 124.07 190.295 124.464 190.568C124.862 190.841 125.155 191.216 125.344 191.693H125.435C125.644 191.227 125.975 190.856 126.43 190.58C126.884 190.299 127.426 190.159 128.055 190.159C128.846 190.159 129.492 190.407 129.992 190.903C130.496 191.4 130.748 192.148 130.748 193.148V199H129.049V193.307C129.049 192.716 128.888 192.288 128.566 192.023C128.244 191.758 127.86 191.625 127.413 191.625C126.86 191.625 126.43 191.795 126.123 192.136C125.816 192.473 125.663 192.907 125.663 193.438V199H123.969V193.199C123.969 192.725 123.822 192.345 123.526 192.057C123.231 191.769 122.846 191.625 122.373 191.625C122.051 191.625 121.754 191.71 121.481 191.881C121.212 192.047 120.994 192.28 120.827 192.58C120.665 192.879 120.583 193.225 120.583 193.619V199H118.884ZM133.161 199V187.364H134.86V191.688H134.962C135.061 191.506 135.203 191.295 135.388 191.057C135.574 190.818 135.832 190.61 136.161 190.432C136.491 190.25 136.926 190.159 137.468 190.159C138.173 190.159 138.801 190.337 139.354 190.693C139.907 191.049 140.341 191.562 140.656 192.233C140.974 192.903 141.133 193.71 141.133 194.653C141.133 195.597 140.976 196.405 140.661 197.08C140.347 197.75 139.915 198.267 139.366 198.631C138.817 198.991 138.19 199.17 137.485 199.17C136.955 199.17 136.521 199.081 136.184 198.903C135.851 198.725 135.589 198.517 135.4 198.278C135.21 198.04 135.065 197.828 134.962 197.642H134.82V199H133.161ZM134.826 194.636C134.826 195.25 134.915 195.788 135.093 196.25C135.271 196.712 135.529 197.074 135.866 197.335C136.203 197.593 136.616 197.722 137.104 197.722C137.612 197.722 138.036 197.587 138.377 197.318C138.718 197.045 138.976 196.676 139.15 196.21C139.328 195.744 139.417 195.22 139.417 194.636C139.417 194.061 139.33 193.544 139.156 193.085C138.985 192.627 138.728 192.265 138.383 192C138.042 191.735 137.616 191.602 137.104 191.602C136.612 191.602 136.195 191.729 135.854 191.983C135.517 192.237 135.262 192.591 135.087 193.045C134.913 193.5 134.826 194.03 134.826 194.636ZM146.802 199.176C145.942 199.176 145.201 198.992 144.58 198.625C143.963 198.254 143.486 197.733 143.148 197.062C142.815 196.388 142.648 195.598 142.648 194.693C142.648 193.799 142.815 193.011 143.148 192.33C143.486 191.648 143.955 191.116 144.558 190.733C145.164 190.35 145.872 190.159 146.683 190.159C147.175 190.159 147.652 190.241 148.114 190.403C148.576 190.566 148.991 190.822 149.359 191.17C149.726 191.519 150.016 191.972 150.228 192.528C150.44 193.081 150.546 193.754 150.546 194.545V195.148H143.609V193.875H148.881C148.881 193.428 148.79 193.032 148.609 192.688C148.427 192.339 148.171 192.064 147.842 191.864C147.516 191.663 147.133 191.562 146.694 191.562C146.217 191.562 145.8 191.68 145.444 191.915C145.092 192.146 144.819 192.449 144.626 192.824C144.436 193.195 144.342 193.598 144.342 194.034V195.028C144.342 195.612 144.444 196.108 144.648 196.517C144.857 196.926 145.147 197.239 145.518 197.455C145.889 197.667 146.323 197.773 146.819 197.773C147.141 197.773 147.434 197.727 147.7 197.636C147.965 197.542 148.194 197.402 148.387 197.216C148.58 197.03 148.728 196.801 148.83 196.528L150.438 196.818C150.309 197.292 150.078 197.706 149.745 198.062C149.415 198.415 149.001 198.689 148.501 198.886C148.004 199.08 147.438 199.176 146.802 199.176ZM152.431 199V190.273H154.073V191.659H154.164C154.323 191.189 154.603 190.82 155.005 190.551C155.41 190.278 155.869 190.142 156.38 190.142C156.486 190.142 156.611 190.146 156.755 190.153C156.903 190.161 157.018 190.17 157.102 190.182V191.807C157.033 191.788 156.912 191.767 156.738 191.744C156.564 191.718 156.389 191.705 156.215 191.705C155.814 191.705 155.456 191.79 155.141 191.96C154.831 192.127 154.585 192.36 154.403 192.659C154.221 192.955 154.13 193.292 154.13 193.67V199H152.431ZM165.112 192.403L163.572 192.676C163.507 192.479 163.405 192.292 163.265 192.114C163.129 191.936 162.943 191.79 162.708 191.676C162.473 191.562 162.18 191.506 161.827 191.506C161.346 191.506 160.945 191.614 160.623 191.83C160.301 192.042 160.14 192.316 160.14 192.653C160.14 192.945 160.248 193.18 160.464 193.358C160.68 193.536 161.028 193.682 161.509 193.795L162.896 194.114C163.699 194.299 164.297 194.585 164.691 194.972C165.085 195.358 165.282 195.86 165.282 196.477C165.282 197 165.13 197.466 164.827 197.875C164.528 198.28 164.11 198.598 163.572 198.83C163.038 199.061 162.418 199.176 161.714 199.176C160.737 199.176 159.939 198.968 159.322 198.551C158.704 198.131 158.326 197.534 158.185 196.761L159.827 196.511C159.93 196.939 160.14 197.263 160.458 197.483C160.776 197.699 161.191 197.807 161.702 197.807C162.259 197.807 162.704 197.691 163.038 197.46C163.371 197.225 163.538 196.939 163.538 196.602C163.538 196.33 163.435 196.1 163.231 195.915C163.03 195.729 162.721 195.589 162.305 195.494L160.827 195.17C160.013 194.985 159.411 194.689 159.021 194.284C158.634 193.879 158.441 193.366 158.441 192.744C158.441 192.229 158.585 191.778 158.873 191.392C159.161 191.006 159.558 190.705 160.066 190.489C160.574 190.269 161.155 190.159 161.81 190.159C162.754 190.159 163.496 190.364 164.038 190.773C164.579 191.178 164.937 191.722 165.112 192.403Z" fill="white"/>
<rect x="287" width="115" height="104" rx="8" fill="white"/>
<path d="M344.5 46C344.5 46 333.5 31.392 333.5 25.2C333.5 23.7292 333.785 22.2728 334.337 20.9139C334.89 19.5551 335.7 18.3204 336.722 17.2804C337.743 16.2404 338.956 15.4154 340.29 14.8525C341.625 14.2897 343.055 14 344.5 14C345.945 14 347.375 14.2897 348.71 14.8525C350.044 15.4154 351.257 16.2404 352.278 17.2804C353.3 18.3204 354.11 19.5551 354.663 20.9139C355.215 22.2728 355.5 23.7292 355.5 25.2C355.5 31.392 344.5 46 344.5 46ZM344.5 28.4C345.334 28.4 346.133 28.0629 346.722 27.4627C347.312 26.8626 347.643 26.0487 347.643 25.2C347.643 24.3513 347.312 23.5374 346.722 22.9373C346.133 22.3371 345.334 22 344.5 22C343.666 22 342.867 22.3371 342.278 22.9373C341.688 23.5374 341.357 24.3513 341.357 25.2C341.357 26.0487 341.688 26.8626 342.278 27.4627C342.867 28.0629 343.666 28.4 344.5 28.4Z" fill="#5F5BEE"/>
<path d="M304.63 84V68H310.942C312.151 68 313.182 68.2161 314.036 68.6484C314.896 69.0755 315.549 69.6823 315.997 70.4688C316.45 71.25 316.677 72.1693 316.677 73.2266C316.677 74.2891 316.448 75.2031 315.989 75.9687C315.531 76.7292 314.867 77.3125 313.997 77.7187C313.132 78.125 312.086 78.3281 310.856 78.3281H306.63V75.6094H310.31C310.955 75.6094 311.492 75.5208 311.919 75.3438C312.346 75.1667 312.664 74.901 312.872 74.5469C313.086 74.1927 313.192 73.7526 313.192 73.2266C313.192 72.6953 313.086 72.2474 312.872 71.8828C312.664 71.5182 312.343 71.2422 311.911 71.0547C311.484 70.862 310.945 70.7656 310.294 70.7656H308.013V84H304.63ZM313.271 76.7188L317.247 84H313.513L309.622 76.7188H313.271ZM324.28 84.2344C323.046 84.2344 321.983 83.9844 321.093 83.4844C320.207 82.9792 319.525 82.2656 319.046 81.3437C318.567 80.4167 318.327 79.3203 318.327 78.0547C318.327 76.8203 318.567 75.737 319.046 74.8047C319.525 73.8724 320.2 73.1458 321.069 72.625C321.944 72.1042 322.97 71.8438 324.147 71.8438C324.939 71.8438 325.676 71.9714 326.358 72.2266C327.046 72.4766 327.645 72.8542 328.155 73.3594C328.671 73.8646 329.072 74.5 329.358 75.2656C329.645 76.026 329.788 76.9167 329.788 77.9375V78.8516H319.655V76.7891H326.655C326.655 76.3099 326.551 75.8854 326.343 75.5156C326.134 75.1458 325.845 74.8568 325.476 74.6484C325.111 74.4349 324.687 74.3281 324.202 74.3281C323.697 74.3281 323.249 74.4453 322.858 74.6797C322.473 74.9089 322.171 75.2187 321.952 75.6094C321.733 75.9948 321.621 76.4245 321.616 76.8984V78.8594C321.616 79.4531 321.726 79.9661 321.944 80.3984C322.168 80.8307 322.483 81.1641 322.89 81.3984C323.296 81.6328 323.778 81.75 324.335 81.75C324.705 81.75 325.043 81.6979 325.351 81.5938C325.658 81.4896 325.921 81.3333 326.14 81.125C326.358 80.9167 326.525 80.6615 326.64 80.3594L329.718 80.5625C329.562 81.3021 329.241 81.9479 328.757 82.5C328.278 83.0469 327.658 83.474 326.897 83.7813C326.142 84.0833 325.27 84.2344 324.28 84.2344ZM331.96 84V72H335.132V74.1172H335.272C335.522 73.4141 335.939 72.8594 336.522 72.4531C337.106 72.0469 337.804 71.8438 338.616 71.8438C339.439 71.8438 340.14 72.0495 340.718 72.4609C341.296 72.8672 341.681 73.4193 341.874 74.1172H341.999C342.244 73.4297 342.687 72.8802 343.327 72.4687C343.973 72.0521 344.736 71.8438 345.616 71.8438C346.736 71.8438 347.645 72.2005 348.343 72.9141C349.046 73.6224 349.397 74.6276 349.397 75.9297V84H346.077V76.5859C346.077 75.9193 345.9 75.4193 345.546 75.0859C345.192 74.7526 344.749 74.5859 344.218 74.5859C343.614 74.5859 343.142 74.7786 342.804 75.1641C342.465 75.5443 342.296 76.0469 342.296 76.6719V84H339.069V76.5156C339.069 75.9271 338.9 75.4583 338.562 75.1094C338.228 74.7604 337.788 74.5859 337.241 74.5859C336.871 74.5859 336.538 74.6797 336.241 74.8672C335.95 75.0495 335.718 75.3073 335.546 75.6406C335.374 75.9687 335.288 76.3542 335.288 76.7969V84H331.96ZM357.448 84.2344C356.235 84.2344 355.185 83.9766 354.3 83.4609C353.42 82.9401 352.74 82.2161 352.261 81.2891C351.782 80.3568 351.542 79.276 351.542 78.0469C351.542 76.8073 351.782 75.724 352.261 74.7969C352.74 73.8646 353.42 73.1406 354.3 72.625C355.185 72.1042 356.235 71.8438 357.448 71.8438C358.662 71.8438 359.709 72.1042 360.589 72.625C361.474 73.1406 362.157 73.8646 362.636 74.7969C363.115 75.724 363.354 76.8073 363.354 78.0469C363.354 79.276 363.115 80.3568 362.636 81.2891C362.157 82.2161 361.474 82.9401 360.589 83.4609C359.709 83.9766 358.662 84.2344 357.448 84.2344ZM357.464 81.6562C358.016 81.6562 358.477 81.5 358.847 81.1875C359.216 80.8698 359.495 80.4375 359.683 79.8906C359.875 79.3437 359.972 78.7214 359.972 78.0234C359.972 77.3255 359.875 76.7031 359.683 76.1562C359.495 75.6094 359.216 75.1771 358.847 74.8594C358.477 74.5417 358.016 74.3828 357.464 74.3828C356.907 74.3828 356.438 74.5417 356.058 74.8594C355.683 75.1771 355.399 75.6094 355.206 76.1562C355.019 76.7031 354.925 77.3255 354.925 78.0234C354.925 78.7214 355.019 79.3437 355.206 79.8906C355.399 80.4375 355.683 80.8698 356.058 81.1875C356.438 81.5 356.907 81.6562 357.464 81.6562ZM371.901 72V74.5H364.675V72H371.901ZM366.315 69.125H369.644V80.3125C369.644 80.6198 369.69 80.8594 369.784 81.0312C369.878 81.1979 370.008 81.3151 370.175 81.3828C370.347 81.4505 370.545 81.4844 370.769 81.4844C370.925 81.4844 371.081 81.4714 371.237 81.4453C371.394 81.4141 371.513 81.3906 371.597 81.375L372.12 83.8516C371.953 83.9036 371.719 83.9635 371.417 84.0313C371.115 84.1042 370.748 84.1484 370.315 84.1641C369.513 84.1953 368.81 84.0885 368.206 83.8437C367.607 83.599 367.141 83.2187 366.808 82.7031C366.474 82.1875 366.31 81.5365 366.315 80.75V69.125ZM379.409 84.2344C378.175 84.2344 377.112 83.9844 376.222 83.4844C375.336 82.9792 374.654 82.2656 374.175 81.3437C373.696 80.4167 373.456 79.3203 373.456 78.0547C373.456 76.8203 373.696 75.737 374.175 74.8047C374.654 73.8724 375.328 73.1458 376.198 72.625C377.073 72.1042 378.099 71.8438 379.276 71.8438C380.068 71.8438 380.805 71.9714 381.487 72.2266C382.175 72.4766 382.774 72.8542 383.284 73.3594C383.8 73.8646 384.201 74.5 384.487 75.2656C384.774 76.026 384.917 76.9167 384.917 77.9375V78.8516H374.784V76.7891H381.784C381.784 76.3099 381.68 75.8854 381.472 75.5156C381.263 75.1458 380.974 74.8568 380.604 74.6484C380.24 74.4349 379.815 74.3281 379.331 74.3281C378.826 74.3281 378.378 74.4453 377.987 74.6797C377.602 74.9089 377.3 75.2187 377.081 75.6094C376.862 75.9948 376.75 76.4245 376.745 76.8984V78.8594C376.745 79.4531 376.854 79.9661 377.073 80.3984C377.297 80.8307 377.612 81.1641 378.019 81.3984C378.425 81.6328 378.907 81.75 379.464 81.75C379.834 81.75 380.172 81.6979 380.479 81.5938C380.787 81.4896 381.05 81.3333 381.269 81.125C381.487 80.9167 381.654 80.6615 381.769 80.3594L384.847 80.5625C384.69 81.3021 384.37 81.9479 383.886 82.5C383.407 83.0469 382.787 83.474 382.026 83.7813C381.271 84.0833 380.399 84.2344 379.409 84.2344Z" fill="#5F5BEE"/>
<path fill-rule="evenodd" clip-rule="evenodd" d="M8 358C3.58172 358 0 361.582 0 366V490C0 494.418 3.58172 498 8 498H55.5662L67.4019 518.5C68.5566 520.5 71.4434 520.5 72.5981 518.5L84.4338 498H132C136.418 498 140 494.418 140 490V366C140 361.582 136.418 358 132 358H8Z" fill="white"/>
<path d="M80.3659 397.25C81.0645 397.25 81.7345 396.966 82.2285 396.459C82.7225 395.953 83 395.266 83 394.55V379.7C83 378.984 82.7225 378.297 82.2285 377.791C81.7345 377.284 81.0645 377 80.3659 377H66.4839C66.9449 377.824 67.1951 378.755 67.1951 379.7H80.3659V394.55H68.5122V397.25M73.7805 383.75V386.45H65.878V404H63.2439V395.9H60.6098V404H57.9756V393.2H56V386.45C56 385.734 56.2775 385.047 56.7715 384.541C57.2655 384.034 57.9355 383.75 58.6341 383.75H73.7805ZM64.561 379.7C64.561 380.416 64.2835 381.103 63.7895 381.609C63.2955 382.116 62.6254 382.4 61.9268 382.4C61.2282 382.4 60.5582 382.116 60.0642 381.609C59.5702 381.103 59.2927 380.416 59.2927 379.7C59.2927 378.984 59.5702 378.297 60.0642 377.791C60.5582 377.284 61.2282 377 61.9268 377C62.6254 377 63.2955 377.284 63.7895 377.791C64.2835 378.297 64.561 378.984 64.561 379.7Z" fill="#5F5BEE"/>
<path d="M53.6374 447.239C52.4329 447.239 51.359 447.017 50.4158 446.574C49.4783 446.131 48.734 445.52 48.1829 444.741C47.6317 443.963 47.3448 443.071 47.3221 442.065H50.9016C50.9414 442.741 51.2255 443.29 51.7539 443.71C52.2823 444.131 52.9102 444.341 53.6374 444.341C54.217 444.341 54.7283 444.213 55.1715 443.957C55.6204 443.696 55.9698 443.335 56.2198 442.875C56.4755 442.409 56.6033 441.875 56.6033 441.273C56.6033 440.659 56.4727 440.119 56.2113 439.653C55.9556 439.187 55.6005 438.824 55.146 438.562C54.6914 438.301 54.1715 438.168 53.5863 438.162C53.0749 438.162 52.5778 438.267 52.0948 438.477C51.6175 438.687 51.2454 438.974 50.9783 439.338L47.6971 438.75L48.5238 429.545H59.1942V432.562H51.5664L51.1147 436.935H51.217C51.5238 436.503 51.9869 436.145 52.6062 435.861C53.2255 435.577 53.9187 435.435 54.6857 435.435C55.7369 435.435 56.6744 435.682 57.4982 436.176C58.3221 436.67 58.9727 437.349 59.4499 438.213C59.9272 439.071 60.163 440.06 60.1573 441.179C60.163 442.355 59.8903 443.401 59.3391 444.315C58.7937 445.224 58.0295 445.94 57.0465 446.463C56.0692 446.98 54.9329 447.239 53.6374 447.239ZM69.5749 447.384C68.109 447.378 66.8477 447.017 65.7908 446.301C64.7397 445.585 63.93 444.548 63.3619 443.19C62.7994 441.832 62.521 440.199 62.5266 438.29C62.5266 436.386 62.8079 434.764 63.3704 433.423C63.9386 432.082 64.7482 431.062 65.7994 430.364C66.8562 429.659 68.1147 429.307 69.5749 429.307C71.0352 429.307 72.2908 429.659 73.342 430.364C74.3988 431.068 75.2113 432.091 75.7795 433.432C76.3477 434.767 76.6289 436.386 76.6232 438.29C76.6232 440.205 76.3391 441.841 75.771 443.199C75.2085 444.557 74.4016 445.594 73.3505 446.31C72.2994 447.026 71.0408 447.384 69.5749 447.384ZM69.5749 444.324C70.5749 444.324 71.3732 443.821 71.9698 442.815C72.5664 441.81 72.8619 440.301 72.8562 438.29C72.8562 436.966 72.7198 435.864 72.4471 434.983C72.18 434.102 71.7994 433.44 71.305 432.997C70.8164 432.554 70.2397 432.332 69.5749 432.332C68.5806 432.332 67.7852 432.83 67.1886 433.824C66.592 434.818 66.2908 436.307 66.2852 438.29C66.2852 439.631 66.4187 440.75 66.6857 441.648C66.9585 442.54 67.342 443.21 67.8363 443.659C68.3306 444.102 68.9102 444.324 69.5749 444.324ZM84.4705 444.341V432.273H87.5217V444.341H84.4705ZM79.962 439.832V436.781H92.0302V439.832H79.962Z" fill="#5F5BEE"/>
<path d="M39.5128 464.364H41.6435L45.348 473.409H45.4844L49.1889 464.364H51.3196V476H49.6491V467.58H49.5412L46.1094 475.983H44.723L41.2912 467.574H41.1832V476H39.5128V464.364ZM57.4972 476.176C56.6373 476.176 55.8968 475.992 55.2756 475.625C54.6581 475.254 54.1809 474.733 53.8438 474.062C53.5104 473.388 53.3438 472.598 53.3438 471.693C53.3438 470.799 53.5104 470.011 53.8438 469.33C54.1809 468.648 54.6506 468.116 55.2528 467.733C55.8589 467.35 56.5672 467.159 57.3778 467.159C57.8703 467.159 58.3475 467.241 58.8097 467.403C59.2718 467.566 59.6866 467.822 60.054 468.17C60.4214 468.519 60.7112 468.972 60.9233 469.528C61.1354 470.081 61.2415 470.754 61.2415 471.545V472.148H54.304V470.875H59.5767C59.5767 470.428 59.4858 470.032 59.304 469.688C59.1222 469.339 58.8665 469.064 58.5369 468.864C58.2112 468.663 57.8286 468.562 57.3892 468.562C56.9119 468.562 56.4953 468.68 56.1392 468.915C55.7869 469.146 55.5142 469.449 55.321 469.824C55.1316 470.195 55.0369 470.598 55.0369 471.034V472.028C55.0369 472.612 55.1392 473.108 55.3438 473.517C55.5521 473.926 55.8419 474.239 56.2131 474.455C56.5843 474.667 57.018 474.773 57.5142 474.773C57.8362 474.773 58.1297 474.727 58.3949 474.636C58.66 474.542 58.8892 474.402 59.0824 474.216C59.2756 474.03 59.4233 473.801 59.5256 473.528L61.1335 473.818C61.0047 474.292 60.7737 474.706 60.4403 475.062C60.1108 475.415 59.696 475.689 59.196 475.886C58.6998 476.08 58.1335 476.176 57.4972 476.176ZM64.8253 470.818V476H63.1264V467.273H64.7571V468.693H64.8651C65.0658 468.231 65.3802 467.86 65.8082 467.58C66.2401 467.299 66.7836 467.159 67.4389 467.159C68.0336 467.159 68.5545 467.284 69.0014 467.534C69.4484 467.78 69.795 468.148 70.0412 468.636C70.2874 469.125 70.4105 469.729 70.4105 470.449V476H68.7116V470.653C68.7116 470.021 68.5469 469.527 68.2173 469.17C67.8878 468.811 67.4351 468.631 66.8594 468.631C66.4654 468.631 66.1151 468.716 65.8082 468.886C65.5052 469.057 65.2647 469.307 65.0866 469.636C64.9124 469.962 64.8253 470.356 64.8253 470.818ZM76.7628 467.273V468.636H71.9957V467.273H76.7628ZM73.2741 465.182H74.973V473.438C74.973 473.767 75.0223 474.015 75.1207 474.182C75.2192 474.345 75.3461 474.456 75.5014 474.517C75.6605 474.574 75.8329 474.602 76.0185 474.602C76.1548 474.602 76.2741 474.593 76.3764 474.574C76.4787 474.555 76.5582 474.54 76.6151 474.528L76.9219 475.932C76.8234 475.97 76.6832 476.008 76.5014 476.045C76.3196 476.087 76.0923 476.11 75.8196 476.114C75.3726 476.121 74.956 476.042 74.5696 475.875C74.1832 475.708 73.8707 475.451 73.6321 475.102C73.3935 474.754 73.2741 474.316 73.2741 473.79V465.182ZM82.2244 476.176C81.4063 476.176 80.6922 475.989 80.0824 475.614C79.4725 475.239 78.9991 474.714 78.6619 474.04C78.3248 473.366 78.1562 472.578 78.1562 471.676C78.1562 470.771 78.3248 469.979 78.6619 469.301C78.9991 468.623 79.4725 468.097 80.0824 467.722C80.6922 467.347 81.4063 467.159 82.2244 467.159C83.0426 467.159 83.7566 467.347 84.3665 467.722C84.9763 468.097 85.4498 468.623 85.7869 469.301C86.1241 469.979 86.2926 470.771 86.2926 471.676C86.2926 472.578 86.1241 473.366 85.7869 474.04C85.4498 474.714 84.9763 475.239 84.3665 475.614C83.7566 475.989 83.0426 476.176 82.2244 476.176ZM82.2301 474.75C82.7604 474.75 83.1998 474.61 83.5483 474.33C83.8968 474.049 84.1544 473.676 84.321 473.21C84.4915 472.744 84.5767 472.231 84.5767 471.67C84.5767 471.114 84.4915 470.602 84.321 470.136C84.1544 469.667 83.8968 469.29 83.5483 469.006C83.1998 468.722 82.7604 468.58 82.2301 468.58C81.696 468.58 81.2528 468.722 80.9006 469.006C80.5521 469.29 80.2926 469.667 80.1222 470.136C79.9555 470.602 79.8722 471.114 79.8722 471.67C79.8722 472.231 79.9555 472.744 80.1222 473.21C80.2926 473.676 80.5521 474.049 80.9006 474.33C81.2528 474.61 81.696 474.75 82.2301 474.75ZM88.1889 476V467.273H89.831V468.659H89.9219C90.081 468.189 90.3613 467.82 90.7628 467.551C91.1681 467.278 91.6264 467.142 92.1378 467.142C92.2438 467.142 92.3688 467.146 92.5128 467.153C92.6605 467.161 92.776 467.17 92.8594 467.182V468.807C92.7912 468.788 92.67 468.767 92.4957 468.744C92.3215 468.718 92.1473 468.705 91.973 468.705C91.5715 468.705 91.2135 468.79 90.8991 468.96C90.5885 469.127 90.3423 469.36 90.1605 469.659C89.9787 469.955 89.8878 470.292 89.8878 470.67V476H88.1889ZM100.869 469.403L99.3295 469.676C99.2652 469.479 99.1629 469.292 99.0227 469.114C98.8864 468.936 98.7008 468.79 98.4659 468.676C98.2311 468.562 97.9375 468.506 97.5852 468.506C97.1042 468.506 96.7027 468.614 96.3807 468.83C96.0587 469.042 95.8977 469.316 95.8977 469.653C95.8977 469.945 96.0057 470.18 96.2216 470.358C96.4375 470.536 96.786 470.682 97.267 470.795L98.6534 471.114C99.4564 471.299 100.055 471.585 100.449 471.972C100.843 472.358 101.04 472.86 101.04 473.477C101.04 474 100.888 474.466 100.585 474.875C100.286 475.28 99.8674 475.598 99.3295 475.83C98.7955 476.061 98.1761 476.176 97.4716 476.176C96.4943 476.176 95.697 475.968 95.0795 475.551C94.4621 475.131 94.0833 474.534 93.9432 473.761L95.5852 473.511C95.6875 473.939 95.8977 474.263 96.2159 474.483C96.5341 474.699 96.9489 474.807 97.4602 474.807C98.017 474.807 98.4621 474.691 98.7955 474.46C99.1288 474.225 99.2955 473.939 99.2955 473.602C99.2955 473.33 99.1932 473.1 98.9886 472.915C98.7879 472.729 98.4792 472.589 98.0625 472.494L96.5852 472.17C95.7708 471.985 95.1686 471.689 94.7784 471.284C94.392 470.879 94.1989 470.366 94.1989 469.744C94.1989 469.229 94.3428 468.778 94.6307 468.392C94.9186 468.006 95.3163 467.705 95.8239 467.489C96.3314 467.269 96.9129 467.159 97.5682 467.159C98.5114 467.159 99.2538 467.364 99.7955 467.773C100.337 468.178 100.695 468.722 100.869 469.403Z" fill="#5F5BEE"/>
<defs>
<clipPath id="clip0_531_113">
<rect width="40" height="32" fill="white" transform="translate(110 97)"/>
</clipPath>
</defs>
</svg>
