<svg width="55" height="55" viewBox="0 0 55 55" fill="none" xmlns="http://www.w3.org/2000/svg">
<rect width="55" height="55" rx="4" fill="#0A5B91"/>
<path d="M24.0859 38.6471H20.25C18.2727 38.6471 16.5327 37.9706 15.1223 36.5229C13.7118 35.1024 13 33.3571 13 31.3141C13 29.5553 13.5141 27.9859 14.5423 26.6059C15.5449 25.2567 16.9852 24.3208 18.6023 23.9676C19.1559 21.8976 20.25 20.22 21.8977 18.9347C23.5455 17.6765 25.4173 17 27.5 17C30.0705 17 32.2586 17.92 34.0382 19.76C35.8309 21.5865 36.7273 23.8324 36.7273 26.4706C38.2432 26.6465 39.5086 27.3229 40.4973 28.5C41.3409 29.4876 41.8155 30.6106 41.9473 31.8824H35.4091C34.7945 31.043 33.9982 30.3616 33.0832 29.8921C32.1682 29.4225 31.1594 29.1775 30.1364 29.1765C26.4455 29.1765 23.5455 32.1529 23.5455 35.9412C23.5455 36.9153 23.7432 37.8218 24.0859 38.6471ZM42 34.5882V37.2941H39.3636V40H36.7273V37.2941H33.8273C33.3 38.9176 31.85 40 30.1364 40C27.8955 40 26.1818 38.2412 26.1818 35.9412C26.1818 33.6412 27.8955 31.8824 30.1364 31.8824C31.85 31.8824 33.3 32.9647 33.8273 34.5882H42ZM31.4545 35.9412C31.4545 35.2647 30.9273 34.5882 30.1364 34.5882C29.3455 34.5882 28.8182 35.2647 28.8182 35.9412C28.8182 36.6176 29.3455 37.2941 30.1364 37.2941C30.9273 37.2941 31.4545 36.6176 31.4545 35.9412Z" fill="white"/>
</svg>
