<svg width="55" height="55" viewBox="0 0 55 55" fill="none" xmlns="http://www.w3.org/2000/svg">
<rect width="55" height="55" rx="4" fill="#0A5B91"/>
<path d="M21.3125 22.4375C22.4314 22.4375 23.5044 21.993 24.2956 21.2019C25.0868 20.4107 25.5312 19.3376 25.5312 18.2188C25.5312 17.0999 25.0868 16.0268 24.2956 15.2356C23.5044 14.4445 22.4314 14 21.3125 14C20.1936 14 19.1206 14.4445 18.3294 15.2356C17.5382 16.0268 17.0938 17.0999 17.0938 18.2188C17.0938 19.3376 17.5382 20.4107 18.3294 21.2019C19.1206 21.993 20.1936 22.4375 21.3125 22.4375ZM14 26.3548C14 25.1229 14.9979 24.125 16.2298 24.125H22.5297C22.0367 25.3689 22.0283 26.7525 22.5061 28.0024C22.984 29.2522 23.9133 30.2773 25.1105 30.875H22.4184C21.7535 30.875 21.1037 31.0726 20.5513 31.4425C19.9989 31.8125 19.5688 32.3381 19.3156 32.9529C17.06 32.5355 15.7078 31.4094 14.9349 30.1516C14 28.6363 14 27.0703 14 26.8003V26.3548ZM29.8884 30.875H32.5828C33.9834 30.875 35.1837 31.7334 35.6855 32.9529C37.9411 32.5355 39.2934 31.4094 40.0662 30.1516C41 28.6351 41 27.0691 41 26.7991V26.3548C41 25.7634 40.7651 25.1962 40.3469 24.7781C39.9288 24.3599 39.3616 24.125 38.7703 24.125H32.4702C32.9633 25.3689 32.9717 26.7525 32.4939 28.0024C32.016 29.2522 31.0867 30.2773 29.8895 30.875H29.8884ZM37.9062 18.2188C37.9062 19.3376 37.4618 20.4107 36.6706 21.2019C35.8794 21.993 34.8064 22.4375 33.6875 22.4375C32.5686 22.4375 31.4956 21.993 30.7044 21.2019C29.9132 20.4107 29.4688 19.3376 29.4688 18.2188C29.4688 17.0999 29.9132 16.0268 30.7044 15.2356C31.4956 14.4445 32.5686 14 33.6875 14C34.8064 14 35.8794 14.4445 36.6706 15.2356C37.4618 16.0268 37.9062 17.0999 37.9062 18.2188ZM20.1875 34.2297C20.1875 32.9979 21.1854 32 22.4173 32H32.5828C33.8146 32 34.8125 32.9979 34.8125 34.2297V34.6741C34.8125 34.9441 34.8125 36.5101 33.8787 38.0266C32.9 39.6196 30.9942 41 27.5 41C24.0057 41 22.1 39.6185 21.1213 38.0278C20.1875 36.5101 20.1875 34.9453 20.1875 34.6741V34.2297ZM27.5 30.3125C28.6189 30.3125 29.6919 29.868 30.4831 29.0769C31.2743 28.2857 31.7188 27.2126 31.7188 26.0938C31.7188 24.9749 31.2743 23.9018 30.4831 23.1106C29.6919 22.3195 28.6189 21.875 27.5 21.875C26.3811 21.875 25.3081 22.3195 24.5169 23.1106C23.7257 23.9018 23.2812 24.9749 23.2812 26.0938C23.2812 27.2126 23.7257 28.2857 24.5169 29.0769C25.3081 29.868 26.3811 30.3125 27.5 30.3125Z" fill="white"/>
</svg>
