<svg width="55" height="55" viewBox="0 0 55 55" fill="none" xmlns="http://www.w3.org/2000/svg">
<rect width="55" height="55" rx="4" fill="#0A5B91"/>
<path d="M28.5 30.5286C30.3613 30.5286 32.0461 29.771 33.2659 28.5467C34.4843 27.3237 35.2391 25.6326 35.2391 23.7643C35.2391 21.896 34.4843 20.2049 33.2659 18.9819C32.0461 17.7576 30.3613 17 28.5 17C26.6387 17 24.9539 17.7576 23.7341 18.9819C22.5157 20.2049 21.7609 21.896 21.7609 23.7643C21.7609 25.6326 22.5157 27.3237 23.7341 28.5467C24.3592 29.1759 25.1021 29.6749 25.92 30.0151C26.7379 30.3552 27.6147 30.5297 28.5 30.5286ZM39.2826 31.8815C39.7254 31.8824 40.1639 31.7955 40.5731 31.6258C40.9824 31.4562 41.3542 31.2071 41.6672 30.8929C41.9803 30.5786 42.2285 30.2054 42.3975 29.7947C42.5665 29.3839 42.6531 28.9437 42.6522 28.4993C42.6522 27.5658 42.2761 26.7203 41.6656 26.1075C41.353 25.7929 40.9815 25.5435 40.5726 25.3736C40.1636 25.2036 39.7252 25.1165 39.2826 25.1172C38.8399 25.1163 38.4013 25.2032 37.9921 25.3728C37.5829 25.5425 37.2111 25.7916 36.898 26.1058C36.5849 26.42 36.3368 26.7932 36.1677 27.204C35.9987 27.6147 35.9122 28.0549 35.913 28.4993C35.9123 28.9437 35.999 29.3838 36.1681 29.7945C36.3372 30.2051 36.5853 30.5783 36.8984 30.8925C37.2114 31.2067 37.5832 31.4558 37.9923 31.6255C38.4014 31.7952 38.8399 31.8822 39.2826 31.8815ZM39.2826 32.6797C37.4887 32.6797 36.1395 33.2289 35.351 33.9892C33.8482 32.7487 31.472 31.8815 28.5 31.8815C25.4458 31.8815 23.1154 32.7581 21.6369 33.9974C20.8336 33.233 19.4696 32.6797 17.7174 32.6797C14.7683 32.6797 13 34.1543 13 35.6316C13 36.3689 14.7683 37.1089 17.7174 37.1089C18.5315 37.1089 19.262 37.0399 19.9049 36.929L19.851 37.2943C19.851 38.6471 23.0939 40 28.5 40C33.5705 40 37.149 38.6471 37.149 37.2943L37.122 36.9493C37.7461 37.0481 38.4631 37.1089 39.2826 37.1089C42.047 37.1089 44 36.3689 44 35.6316C44 34.1543 42.1494 32.6797 39.2826 32.6797ZM17.7174 31.8815C18.6474 31.8815 19.4898 31.504 20.1003 30.8912C20.4137 30.5774 20.6622 30.2046 20.8315 29.7941C21.0008 29.3836 21.0876 28.9436 21.087 28.4993C21.0878 28.0549 21.0013 27.6147 20.8323 27.204C20.6633 26.7932 20.4151 26.42 20.102 26.1058C19.7889 25.7916 19.4171 25.5425 19.0079 25.3728C18.5987 25.2032 18.1601 25.1163 17.7174 25.1172C17.2747 25.1165 16.8362 25.2035 16.4271 25.3732C16.0179 25.5429 15.6462 25.792 15.3332 26.1062C15.0201 26.4204 14.772 26.7935 14.6029 27.2042C14.4338 27.6149 14.3471 28.055 14.3478 28.4993C14.3469 28.9437 14.4335 29.3839 14.6025 29.7947C14.7715 30.2054 15.0197 30.5786 15.3328 30.8929C15.6458 31.2071 16.0176 31.4562 16.4269 31.6258C16.8361 31.7955 17.2746 31.8824 17.7174 31.8815Z" fill="white"/>
</svg>
