<svg width="18" height="18" viewBox="0 0 18 18" fill="none" xmlns="http://www.w3.org/2000/svg">
<path fill-rule="evenodd" clip-rule="evenodd" d="M13.5 0H4.5C2.02522 0 0 2.02432 0 4.5V13.5C0 15.9748 2.02522 18 4.5 18H13.5C15.9748 18 18 15.9748 18 13.5V4.5C18 2.02432 15.9748 0 13.5 0ZM9 12C6.7906 12 5 10.4325 5 8.5001C5 6.56683 6.7906 5 9 5C11.2084 5 13 6.56683 13 8.5001C13 10.4325 11.2084 12 9 12ZM13 4C13 4.5522 13.4472 5 14 5C14.5528 5 15 4.5522 15 4C15 3.4478 14.5528 3 14 3C13.4472 3 13 3.4478 13 4Z" fill="white"/>
</svg>
