<svg width="55" height="55" viewBox="0 0 55 55" fill="none" xmlns="http://www.w3.org/2000/svg">
<rect width="55" height="55" rx="4" fill="#0A5B91"/>
<mask id="mask0_32_181" style="mask-type:luminance" maskUnits="userSpaceOnUse" x="13" y="13" width="31" height="31">
<path fill-rule="evenodd" clip-rule="evenodd" d="M17.7 20.4C18.4161 20.4 19.1028 20.1155 19.6092 19.6092C20.1155 19.1028 20.4 18.4161 20.4 17.7C20.4 16.9839 20.1155 16.2972 19.6092 15.7908C19.1028 15.2845 18.4161 15 17.7 15C16.9839 15 16.2972 15.2845 15.7908 15.7908C15.2845 16.2972 15 16.9839 15 17.7C15 18.4161 15.2845 19.1028 15.7908 19.6092C16.2972 20.1155 16.9839 20.4 17.7 20.4ZM19.05 40.65C20.1241 40.65 21.1543 40.2233 21.9138 39.4638C22.6733 38.7043 23.1 37.6741 23.1 36.6C23.1 35.5259 22.6733 34.4957 21.9138 33.7362C21.1543 32.9767 20.1241 32.55 19.05 32.55C17.9759 32.55 16.9457 32.9767 16.1862 33.7362C15.4267 34.4957 15 35.5259 15 36.6C15 37.6741 15.4267 38.7043 16.1862 39.4638C16.9457 40.2233 17.9759 40.65 19.05 40.65ZM37.95 42C39.0241 42 40.0543 41.5733 40.8138 40.8138C41.5733 40.0543 42 39.0241 42 37.95C42 36.8759 41.5733 35.8457 40.8138 35.0862C40.0543 34.3267 39.0241 33.9 37.95 33.9C36.8759 33.9 35.8457 34.3267 35.0862 35.0862C34.3267 35.8457 33.9 36.8759 33.9 37.95C33.9 39.0241 34.3267 40.0543 35.0862 40.8138C35.8457 41.5733 36.8759 42 37.95 42ZM27.15 31.2C28.5822 31.2 29.9557 30.6311 30.9684 29.6184C31.9811 28.6057 32.55 27.2322 32.55 25.8C32.55 24.3678 31.9811 22.9943 30.9684 21.9816C29.9557 20.9689 28.5822 20.4 27.15 20.4C25.7178 20.4 24.3443 20.9689 23.3316 21.9816C22.3189 22.9943 21.75 24.3678 21.75 25.8C21.75 27.2322 22.3189 28.6057 23.3316 29.6184C24.3443 30.6311 25.7178 31.2 27.15 31.2ZM35.25 20.4C35.9661 20.4 36.6528 20.1155 37.1592 19.6092C37.6655 19.1028 37.95 18.4161 37.95 17.7C37.95 16.9839 37.6655 16.2972 37.1592 15.7908C36.6528 15.2845 35.9661 15 35.25 15C34.5339 15 33.8472 15.2845 33.3408 15.7908C32.8345 16.2972 32.55 16.9839 32.55 17.7C32.55 18.4161 32.8345 19.1028 33.3408 19.6092C33.8472 20.1155 34.5339 20.4 35.25 20.4Z" fill="white" stroke="white" stroke-width="2.66667" stroke-linecap="round" stroke-linejoin="round"/>
<path d="M20 20L22.7826 22.6667M33.2174 20.6667L31.8261 22M36 35L31.8261 30M22.087 33.3333L24.8696 30.6667" stroke="white" stroke-width="2.66667" stroke-linecap="round" stroke-linejoin="round"/>
</mask>
<g mask="url(#mask0_32_181)">
<path d="M12 12H44V44H12V12Z" fill="white"/>
</g>
</svg>
