<svg width="55" height="55" viewBox="0 0 55 55" fill="none" xmlns="http://www.w3.org/2000/svg">
<rect width="55" height="55" rx="4" fill="#0A5B91"/>
<path d="M38.3659 35.25C39.0645 35.25 39.7345 34.9655 40.2285 34.4592C40.7225 33.9528 41 33.2661 41 32.55V17.7C41 16.9839 40.7225 16.2972 40.2285 15.7908C39.7345 15.2845 39.0645 15 38.3659 15H24.4839C24.9449 15.8235 25.1951 16.755 25.1951 17.7H38.3659V32.55H26.5122V35.25M31.7805 21.75V24.45H23.878V42H21.2439V33.9H18.6098V42H15.9756V31.2H14V24.45C14 23.7339 14.2775 23.0472 14.7715 22.5408C15.2655 22.0345 15.9355 21.75 16.6341 21.75H31.7805ZM22.561 17.7C22.561 18.4161 22.2835 19.1028 21.7895 19.6092C21.2955 20.1155 20.6254 20.4 19.9268 20.4C19.2282 20.4 18.5582 20.1155 18.0642 19.6092C17.5702 19.1028 17.2927 18.4161 17.2927 17.7C17.2927 16.9839 17.5702 16.2972 18.0642 15.7908C18.5582 15.2845 19.2282 15 19.9268 15C20.6254 15 21.2955 15.2845 21.7895 15.7908C22.2835 16.2972 22.561 16.9839 22.561 17.7Z" fill="white"/>
</svg>
