<svg width="32" height="26" viewBox="0 0 32 26" fill="none" xmlns="http://www.w3.org/2000/svg">
<path d="M8.06089 16.942C7.64373 16.7527 7.25703 16.5046 6.91306 16.2055C6.5469 15.8888 6.24738 15.5049 6.03133 15.0754C5.82256 14.6635 5.68818 14.2192 5.63416 13.7622C5.56677 13.3133 5.57482 12.8565 5.65799 12.4101C5.82795 11.5241 6.2668 10.7091 6.91703 10.072C7.4833 9.51507 8.13786 9.05185 8.85523 8.7004C10.1838 8.05925 11.6097 7.63416 13.0772 7.44175C13.4386 7.39499 13.808 7.35603 14.1853 7.33654C14.5626 7.31706 14.9399 7.33654 15.3133 7.33654C16.0479 7.38165 16.7781 7.48064 17.4977 7.63269C19.5644 8.06644 21.5308 8.87382 23.2964 10.0136C24.0674 10.5308 24.7904 11.1136 25.457 11.7554C25.6199 11.923 25.7907 12.0789 25.9456 12.2542L26.4103 12.7842L26.8471 13.3843C26.9862 13.5908 27.0934 13.8168 27.2165 14.0311C27.6651 14.9216 27.8976 15.9019 27.8957 16.8952C27.8903 17.8634 27.6807 18.82 27.2801 19.7048C26.8944 20.5695 26.3567 21.3609 25.6914 22.0428C25.354 22.3895 24.9873 22.7076 24.5952 22.9936C24.4006 23.13 24.198 23.2664 24.0074 23.3833C23.7938 23.5099 23.5723 23.6232 23.3441 23.7223C22.4484 24.1256 21.4694 24.3191 20.4844 24.2873C19.9286 24.2672 19.3884 24.1017 18.9196 23.808C18.4231 23.4744 18.0706 22.9716 17.9306 22.3974C17.818 21.9174 17.84 21.4165 17.9942 20.9478C18.1288 20.528 18.3213 20.1281 18.5661 19.7593C19.0305 19.0511 19.6211 18.4307 20.3097 17.9278C21.6666 16.9078 23.3437 16.3841 25.0519 16.4471C27.2578 16.5173 29.3174 17.547 30.6719 19.2566C30.8392 19.4654 30.9892 19.6869 31.1207 19.9191C31.2606 20.1467 31.3865 20.3822 31.498 20.6244C31.7218 21.1094 31.8717 21.6241 31.9429 22.1519C32.0619 23.1647 31.9946 24.1902 31.7443 25.1797C31.6092 25.7797 31.498 26.0252 31.4424 25.998C31.3868 25.9707 31.363 25.6667 31.3074 25.1524C31.2342 24.4629 31.0946 23.7819 30.8904 23.1183C30.7585 22.7151 30.5911 22.3239 30.3899 21.9493C30.1847 21.5454 29.9386 21.1629 29.6552 20.8075C29.5368 20.6395 29.4039 20.4817 29.258 20.336C29.1924 20.2555 29.1192 20.1811 29.0395 20.1139C29.0021 20.0773 28.9608 20.0446 28.9164 20.0165L28.8052 19.9074C28.6552 19.7659 28.4946 19.6356 28.3246 19.5177C28.1604 19.3908 27.985 19.2787 27.8004 19.1826C27.078 18.7816 26.2813 18.5259 25.457 18.4305C23.8065 18.186 22.1317 18.6874 20.9015 19.7944C20.6039 20.0736 20.3376 20.3832 20.1071 20.7179C19.9065 20.9929 19.7597 21.3021 19.6742 21.6297C19.6216 21.8273 19.6502 22.0371 19.7536 22.2142C19.8946 22.3963 20.1058 22.5134 20.3375 22.5377C21.136 22.6317 21.9456 22.5077 22.6768 22.1792C22.7761 22.1402 22.8635 22.0934 22.9588 22.0506C23.0477 22.0076 23.1339 21.9595 23.217 21.9064C23.3957 21.7778 23.5903 21.6687 23.7611 21.5167C24.1075 21.2604 24.4281 20.972 24.7183 20.6556C25.0672 20.2573 25.3635 19.8174 25.6 19.3463C25.8283 18.8741 25.9887 18.3731 26.0766 17.8577C26.2043 17.0927 26.1457 16.3089 25.9058 15.5703C25.8661 15.4495 25.8066 15.3365 25.7589 15.2157C25.7133 15.0951 25.6561 14.9789 25.5881 14.8689C25.0017 13.9285 24.2341 13.1091 23.3282 12.4568C22.3969 11.7587 21.3947 11.1567 20.3375 10.6604C18.0101 9.56157 15.4245 8.96537 12.9382 9.43298C11.6871 9.61869 10.478 10.0141 9.36361 10.602C8.84894 10.8795 8.39217 11.2496 8.0172 11.6931C7.68523 12.0966 7.4994 12.5969 7.48896 13.1154C7.46002 13.7509 7.71019 14.368 8.17607 14.8105C8.72564 15.2486 9.39385 15.5195 10.0984 15.5898C11.6678 15.7822 13.2613 15.6264 14.7612 15.1339C15.8909 14.7313 16.9475 14.1538 17.8909 13.4232C18.836 12.7357 19.5999 11.8366 20.119 10.8007C20.5915 9.80774 20.6117 8.66455 20.1746 7.65607C19.6919 6.61482 18.9603 5.70317 18.0418 4.99851C16.5876 3.87155 14.8978 3.07323 13.0931 2.66047C12.6481 2.54641 12.1974 2.45536 11.7427 2.3877C11.2899 2.31366 10.8292 2.28249 10.3724 2.23183C9.45746 2.1811 8.53984 2.20064 7.62797 2.29028L7.02824 2.34094C6.83362 2.34094 6.63106 2.41108 6.44439 2.44615L5.85658 2.55526L5.27274 2.70334L4.73655 2.83193C4.57371 2.87869 4.42279 2.93324 4.27186 2.98C3.97795 3.07352 3.69596 3.12808 3.45369 3.2216C2.97311 3.40085 2.56005 3.50216 2.23834 3.61127C1.74908 3.79135 1.227 3.86964 0.705251 3.84118C0.512568 3.83855 0.320234 3.82424 0.129351 3.79832C-0.112924 3.73207 -0.0096591 3.4632 0.395457 2.97611C0.508571 2.83742 0.632034 2.70717 0.764827 2.58643C0.919725 2.46564 1.09448 2.33315 1.2891 2.19676C1.74803 1.87803 2.23754 1.60397 2.75069 1.37845C4.47167 0.594557 6.32915 0.139618 8.22373 0.0379747C10.1654 -0.0897422 12.1152 0.105239 13.9907 0.61469C15.9444 1.12996 17.7649 2.04494 19.3326 3.29953C20.1551 3.96227 20.8714 4.74253 21.4575 5.61419C21.7638 6.08591 22.0169 6.58896 22.2121 7.11443C22.4111 7.67228 22.5301 8.25457 22.5656 8.84458C22.605 9.72605 22.4422 10.605 22.089 11.4164C21.7563 12.1634 21.309 12.856 20.7625 13.47C19.7333 14.5966 18.4962 15.5221 17.1164 16.1977C16.7828 16.3692 16.4373 16.525 16.0877 16.6692C15.723 16.8217 15.3489 16.9519 14.9677 17.0589C14.2388 17.2517 13.4969 17.3936 12.7475 17.4836C11.9875 17.5769 11.22 17.5978 10.4558 17.546C9.62419 17.4981 8.80722 17.3096 8.04103 16.9887L8.06089 16.942Z" fill="white"/>
</svg>
