<svg width="20" height="16" viewBox="0 0 20 16" fill="none" xmlns="http://www.w3.org/2000/svg">
<path d="M17.9452 3.98747C17.9585 4.16289 17.9585 4.3373 17.9585 4.51171C17.9585 9.84939 13.8337 16 6.29554 16C3.97313 16 1.81559 15.3374 0 14.1867C0.329737 14.2238 0.647262 14.2368 0.99023 14.2368C2.90657 14.2368 4.67026 13.5993 6.07979 12.5117C4.27743 12.4746 2.76715 11.3119 2.24608 9.71207C2.49949 9.74915 2.75392 9.77421 3.02056 9.77421C3.38795 9.77421 3.75738 9.72409 4.10035 9.63689C2.22064 9.262 0.813149 7.63714 0.813149 5.67448V5.62436C1.35966 5.92407 1.99369 6.11151 2.66538 6.13657C1.56116 5.41286 0.837574 4.17492 0.837574 2.77459C0.837574 2.02481 1.0401 1.33718 1.39528 0.737752C3.41339 3.18657 6.44718 4.78737 9.84836 4.96279C9.78526 4.66207 9.74659 4.35033 9.74659 4.03759C9.74659 1.8123 11.5744 0 13.8459 0C15.0265 0 16.092 0.487157 16.841 1.27503C17.7671 1.09961 18.6546 0.761809 19.4423 0.299712C19.138 1.23694 18.4897 2.02481 17.6399 2.525C18.4653 2.43679 19.2652 2.21225 20 1.89951C19.4423 2.69941 18.7452 3.4121 17.9452 3.98747Z" fill="white"/>
</svg>
