<svg width="22" height="24" viewBox="0 0 22 24" fill="none" xmlns="http://www.w3.org/2000/svg">
<path d="M10.7744 21.2054C9.98741 20.5591 2.67952 13.2865 2.59784 13.207C2.27508 12.8767 2.07186 12.5342 2.01607 12.2202C1.9583 11.894 2.05592 11.6085 2.31492 11.3435C2.556 11.0968 2.85086 10.9663 3.16764 10.9663C3.55416 10.9663 3.95063 11.1539 4.28136 11.4943L7.59461 14.7524C7.65239 14.8095 7.7281 14.8381 7.80182 14.8381C7.87952 14.8381 7.95523 14.8075 8.013 14.7484C8.12856 14.6301 8.12856 14.4385 8.015 14.3202L2.72534 8.72965C2.19538 8.18731 1.94634 7.35749 2.57592 6.71321C2.81699 6.46651 3.11186 6.33603 3.42864 6.33603C3.81515 6.33603 4.21163 6.5236 4.54236 6.86409L9.95354 12.263C10.0113 12.3201 10.087 12.3507 10.1627 12.3507C10.2384 12.3507 10.3161 12.3201 10.3739 12.261C10.4895 12.1427 10.4915 11.951 10.3759 11.8308L3.87691 5.01281C3.57607 4.70494 3.39477 4.3359 3.36289 3.97706C3.33301 3.61211 3.45852 3.27366 3.72749 2.99841C3.96856 2.75171 4.26343 2.62122 4.58021 2.62122C4.96672 2.62122 5.3632 2.8088 5.69393 3.14725L12.3224 9.76131C12.3802 9.8184 12.4559 9.84898 12.5316 9.84898C12.6073 9.84898 12.685 9.8184 12.7428 9.75927C12.8584 9.64102 12.8604 9.44936 12.7448 9.32907L7.93132 4.26658C7.62848 3.95668 7.44718 3.58968 7.4173 3.23084C7.38741 2.86589 7.51293 2.52744 7.78189 2.25219C8.02297 2.00549 8.31783 1.875 8.63461 1.875C9.02113 1.875 9.4176 2.06258 9.74833 2.40306C11.5135 4.17687 16.1218 8.81528 16.2772 8.98654C16.8689 9.40451 16.9885 8.77246 17.0184 8.36265C17.0522 7.88556 16.5183 6.21981 16.8291 4.72125C17.3511 2.72928 18.8553 3.0555 18.8892 3.07181C19.714 3.46735 19.5566 4.05862 19.2637 5.24727L19.2338 5.48174C18.927 7.03535 21.0349 11.6391 21.1903 11.9837C22.0171 13.835 22.9695 17.5885 19.8156 20.816C16.3589 24.3534 12.0794 22.5409 10.7744 21.2054Z" fill="url(#paint0_radial_519_71)"/>
<path d="M14.772 23.875C12.6106 23.875 10.7721 22.8191 10.0469 22.0868C9.39485 21.5433 5.27923 17.4856 1.92742 14.1643C1.79131 14.0295 1.71209 13.9527 1.70396 13.9423C1.32409 13.5544 1.08845 13.1499 1.02141 12.7682C0.944217 12.3346 1.07626 11.9425 1.40941 11.6002C1.71412 11.289 2.0879 11.1252 2.49418 11.1252C2.97156 11.1252 3.45097 11.3492 3.84506 11.7537L7.21922 15.0646L1.82381 9.37637C1.20221 8.74157 0.889369 7.6898 1.67552 6.88905C1.98023 6.57788 2.35401 6.41399 2.76029 6.41399C3.23767 6.41399 3.71708 6.63804 4.11117 7.04256L9.6244 12.5317L3 5.59664C2.64653 5.23568 2.42917 4.79381 2.39058 4.35402C2.35198 3.88518 2.51043 3.45576 2.84967 3.10932C3.15438 2.79815 3.52816 2.63426 3.93444 2.63426C4.40979 2.63426 4.8892 2.85624 5.28532 3.26076L12.0418 9.98834L7.1339 4.83738C6.77841 4.47434 6.56105 4.03247 6.52448 3.59268C6.48588 3.12592 6.64433 2.6965 6.98358 2.35006C7.28829 2.03888 7.66207 1.875 8.06835 1.875C8.54573 1.875 9.02514 2.09905 9.41923 2.50357L10.8839 3.97024C13.4942 6.5841 15.6759 8.77269 15.9096 9.01748C16.0233 9.11083 16.1716 9.1461 16.2346 9.11498C16.2752 9.09424 16.3199 8.99881 16.3118 8.79758C16.2996 8.44492 16.2508 8.0072 16.2 7.54459C16.0985 6.61522 15.9928 5.65265 16.1249 5.01786C16.4133 3.9163 16.9801 3.44954 17.4026 3.24831C17.9836 2.97448 18.5463 3.06991 18.654 3.12177C19.7103 3.62795 19.5011 4.47434 19.2126 5.6485L19.2065 5.67755L19.174 5.92026C18.9628 6.9824 20.0475 9.91781 21.1323 12.3097L21.1485 12.3429C21.8738 13.961 23.18 18.1121 19.6859 21.6802C18.0791 23.317 16.3402 23.875 14.772 23.875ZM2.49418 11.7475C2.25447 11.7475 2.02695 11.8492 1.84007 12.04C1.64708 12.2371 1.58005 12.4279 1.62067 12.6561C1.66537 12.9072 1.84616 13.2059 2.12852 13.4963C2.13056 13.4984 2.21181 13.5793 2.35198 13.7162C7.10952 18.4315 9.98193 21.2342 10.441 21.6117L10.4654 21.6345C11.5867 22.7797 15.7531 24.8127 19.2532 21.2383C22.4771 17.9461 21.2643 14.1021 20.5919 12.6001L20.5777 12.569C19.8789 11.0297 18.2904 7.29565 18.5727 5.80616L18.6195 5.49499C18.9323 4.2254 18.9506 3.95987 18.4204 3.69848C18.264 3.66944 17.1426 3.53045 16.714 5.16307C16.6063 5.68377 16.7099 6.63596 16.8013 7.47613C16.8542 7.95119 16.9029 8.40136 16.9151 8.77684C16.9354 9.36807 16.6612 9.59419 16.4946 9.67717C16.1554 9.8452 15.7511 9.70206 15.4992 9.48632L15.4728 9.46142C15.3489 9.3245 12.4013 6.3725 10.4512 4.41833L8.98451 2.94751C8.48478 2.43511 7.84083 2.35006 7.40814 2.79193C7.19687 3.00767 7.1014 3.26076 7.12374 3.54082C7.14812 3.83332 7.30251 4.13827 7.5605 4.40173L12.4785 9.5527C12.7101 9.79334 12.7101 10.1875 12.4745 10.4281C12.249 10.6584 11.8508 10.6626 11.6192 10.4344L4.8567 3.70263C4.35697 3.1923 3.71099 3.10725 3.28033 3.54912C3.06906 3.76486 2.97359 4.01795 2.99593 4.29801C3.02234 4.59051 3.17673 4.89754 3.43269 5.15685L10.0612 12.0981C10.2948 12.3387 10.2927 12.7329 10.0571 12.9735C9.8316 13.2038 9.43345 13.208 9.20187 12.9798L3.68255 7.48443C3.18282 6.96995 2.53684 6.88697 2.10618 7.32884C1.58005 7.86614 1.86038 8.53205 2.25853 8.94072L7.65597 14.6331C7.88755 14.8738 7.88552 15.2659 7.64988 15.5044C7.42236 15.7368 7.02827 15.7388 6.79669 15.5127L3.41847 12.1977C3.13407 11.9052 2.80701 11.7475 2.49418 11.7475Z" fill="#AFADF7"/>
<path d="M15.7701 9.125C14.5751 11.3437 14.7297 14.449 16.5233 16.9409C16.7257 17.2773 17.0718 17.113 16.8955 16.7667C14.7297 12.553 17 9.51688 17 9.51688L15.7701 9.125Z" fill="#AFADF7"/>
<path d="M11 0.244104C11.5445 0.0776855 12.125 0.0924314 12.6893 0.24621C13.25 0.404202 13.8107 0.737038 14.2272 1.28053C14.6347 1.81981 14.8853 2.47495 14.97 3.16169C15.0493 3.84211 14.9754 4.54359 14.6996 5.125C14.6671 4.47197 14.5698 3.8716 14.4057 3.31757C14.321 3.04161 14.2218 2.77829 14.101 2.52972C13.982 2.28325 13.8414 2.03889 13.6917 1.83877C13.387 1.42799 12.9742 1.10779 12.5108 0.859219C12.0457 0.602219 11.5391 0.412628 11 0.244104Z" fill="#3F3D9F"/>
<path d="M11 2.24084C11.3342 2.00536 11.7525 1.95648 12.1468 2.03424C12.545 2.11199 12.9253 2.33192 13.2255 2.63628C13.5237 2.94507 13.7358 3.33384 13.8679 3.73816C13.932 3.94032 13.964 4.15359 13.994 4.3602C14.004 4.57346 14.004 4.78673 13.974 5C13.8359 4.83783 13.7278 4.67565 13.6258 4.51792C13.5077 4.36908 13.4156 4.21135 13.3096 4.06695C13.1014 3.78037 12.8993 3.52045 12.6811 3.28941C12.457 3.06503 12.2208 2.86732 11.9466 2.69626C11.6745 2.52076 11.3682 2.37413 11 2.24084Z" fill="#3F3D9F"/>
<path d="M0.00354481 15C0.265052 15.5907 0.537687 16.1386 0.854834 16.6223C1.17013 17.1061 1.53178 17.517 1.95279 17.7845C2.15681 17.9151 2.39977 18.0285 2.63716 18.1141C2.87641 18.2019 3.12494 18.2618 3.38088 18.3025C3.89277 18.3753 4.43062 18.3624 5 18.2618C4.55859 18.7049 3.96881 18.9403 3.3679 18.9917C2.75957 19.0387 2.14197 18.8868 1.58928 18.5272C1.03288 18.1612 0.624856 17.5791 0.368913 16.9605C0.11297 16.3377 -0.0242751 15.6678 0.00354481 15Z" fill="#3F3D9F"/>
<path d="M2.07959 15C2.26547 15.397 2.44943 15.7161 2.65064 15.995C2.84993 16.2738 3.06456 16.5031 3.29834 16.7111C3.53596 16.912 3.79658 17.0892 4.08018 17.2665C4.22199 17.3563 4.37338 17.4272 4.52285 17.5312C4.67806 17.6139 4.8352 17.7013 5 17.8266C4.82562 17.9069 4.6474 17.9542 4.46536 17.9896C4.28523 17.9991 4.09935 18.0109 3.91538 17.9802C3.54746 17.9187 3.17953 17.7604 2.8576 17.4839C2.54141 17.2026 2.27888 16.8127 2.13516 16.3707C1.98952 15.9312 1.94736 15.4396 2.07959 15Z" fill="#3F3D9F"/>
<defs>
<radialGradient id="paint0_radial_519_71" cx="0" cy="0" r="1" gradientUnits="userSpaceOnUse" gradientTransform="translate(7.68949 7.04756) rotate(-45.6612) scale(18.3447 18.3398)">
<stop offset="0.3533" stop-color="#5F5BEE"/>
<stop offset="0.8723" stop-color="#5F5BEE"/>
</radialGradient>
</defs>
</svg>
